<svg width="27" height="22" viewBox="0 0 27 22" fill="none" xmlns="http://www.w3.org/2000/svg">
<path d="M1 8H24L22 21.5H3.5L1 8Z" fill="#FF5D00"/>
<path d="M25.7713 7.35C25.6774 7.24023 25.5609 7.15211 25.4297 7.09169C25.2985 7.03127 25.1558 6.99999 25.0113 7H19.0113V3C19.0113 2.20435 18.6953 1.44129 18.1326 0.87868C17.57 0.316071 16.807 0 16.0113 0H10.0113C9.21567 0 8.45261 0.316071 7.89 0.87868C7.32739 1.44129 7.01132 2.20435 7.01132 3V7H1.01132C0.86637 6.99836 0.722792 7.02825 0.590538 7.08761C0.458284 7.14697 0.340516 7.23437 0.245395 7.34376C0.150273 7.45315 0.0800712 7.58191 0.0396539 7.72113C-0.00076339 7.86034 -0.01043 8.00668 0.0113238 8.15L1.89132 20.3C1.96365 20.7769 2.20589 21.2116 2.57342 21.524C2.94095 21.8364 3.409 22.0055 3.89132 22H22.1513C22.6337 22.0055 23.1017 21.8364 23.4692 21.524C23.8368 21.2116 24.079 20.7769 24.1513 20.3L26.0113 8.15C26.0313 8.00723 26.0203 7.86183 25.9788 7.72374C25.9374 7.58566 25.8666 7.45817 25.7713 7.35ZM9.01132 3C9.01132 2.73478 9.11668 2.48043 9.30422 2.29289C9.49175 2.10536 9.74611 2 10.0113 2H16.0113C16.2765 2 16.5309 2.10536 16.7184 2.29289C16.906 2.48043 17.0113 2.73478 17.0113 3V7H9.01132V3ZM22.1513 20H3.87132L2.18132 9H23.8413L22.1513 20Z" fill="black"/>
</svg>
