<svg width="68" height="49" viewBox="0 0 68 49" fill="none" xmlns="http://www.w3.org/2000/svg">
<path d="M6.81672 0.0136167L33.9994 3.28562L61.1855 0.0136167C61.9296 -0.0789248 62.6514 0.306664 62.9957 0.974285L67.6266 10.1601C68.615 12.1321 67.56 14.5228 65.4167 15.1287L47.2815 20.2736C45.7379 20.7032 44.0832 20.0643 43.2614 18.599L33.9994 3.28562L24.7375 18.599C23.9157 20.0643 22.261 20.7032 20.7174 20.2736L2.57889 15.1287C0.439985 14.5228 -0.618028 12.1321 0.376684 10.1601L5.00764 0.974285C5.34414 0.306664 6.06932 -0.0789248 6.81672 0.0136167ZM34.1216 10.4355L40.2074 20.5049C41.8621 23.2371 45.1604 24.438 48.2588 23.6558L62.4293 19.6456V38.0327C62.4293 40.4564 60.7635 42.5717 58.3869 43.1666L35.7208 48.7852C34.588 49.0716 33.4109 49.0716 32.2781 48.7852L9.61195 43.1666C7.23428 42.5717 5.56958 40.4564 5.56958 38.0327V19.6456L19.7401 23.6558C22.8385 24.438 26.1368 23.2371 27.7915 20.5049L33.8773 10.4355H34.1216Z" fill="#AB7E1B"/>
</svg>
