<svg width="30" height="30" viewBox="0 0 30 30" fill="none" xmlns="http://www.w3.org/2000/svg">
<path d="M5.62465 0C4.1329 0 2.70225 0.592632 1.64742 1.64752C0.592595 2.70242 0 4.13316 0 5.625V20.625C0 22.1168 0.592595 23.5476 1.64742 24.6025C2.70225 25.6574 4.1329 26.25 5.62465 26.25H11.3449C11.2811 25.9416 11.249 25.6274 11.2493 25.3125V24.375H5.62465C4.63015 24.375 3.67638 23.9799 2.97316 23.2766C2.26995 22.5734 1.87488 21.6196 1.87488 20.625V7.5H26.2484V5.625C26.2484 4.13316 25.6558 2.70242 24.6009 1.64752C23.5461 0.592632 22.1155 0 20.6237 0H5.62465ZM26.2484 10.1644C25.6385 9.93974 25.0115 9.7648 24.3735 9.64125C23.4468 9.46206 22.505 9.3729 21.5612 9.375C16.9021 9.375 13.1242 11.475 13.1242 14.0625C13.1242 16.65 16.9021 18.75 21.5612 18.75C26.2202 18.75 29.9981 16.65 29.9981 14.0625C29.9981 12.4369 28.5095 11.0062 26.2484 10.1644ZM21.5612 20.625C24.1485 20.625 26.5821 20.0456 28.4382 19.0163C28.9876 18.7106 29.5219 18.3412 30 17.91L29.9981 25.3125C29.9981 27.9019 26.2202 30 21.5612 30C16.9021 30 13.1242 27.9 13.1242 25.3125V17.9156C13.6023 18.3469 14.1366 18.7125 14.6841 19.0181C16.5402 20.0494 18.9738 20.6269 21.5612 20.6269V20.625Z" fill="#6293CB"/>
<ellipse cx="21.5" cy="14" rx="8.5" ry="5" fill="#E9E4DA"/>
<path d="M13 17.5C13 17.5 17.9799 20 21.5 20C25.0201 20 30 17.5 30 17.5V25C30 27.7614 27.7614 30 25 30H18C15.2386 30 13 27.7614 13 25V17.5Z" fill="#E9E4DA"/>
</svg>
