<svg width="21" height="22" viewBox="0 0 21 22" fill="none" xmlns="http://www.w3.org/2000/svg">
<path d="M13 0H7V6.987H0V12.987H7V19.974H13V12.987H20V6.987H13V0Z" fill="#74D441"/>
<path d="M16.625 20H14.7398V13.8909H16.7085C17.3011 13.8909 17.8082 14.0132 18.2298 14.2578C18.6514 14.5004 18.9746 14.8494 19.1993 15.3048C19.424 15.7582 19.5364 16.3011 19.5364 16.9335C19.5364 17.5699 19.423 18.1178 19.1963 18.5771C18.9696 19.0345 18.6395 19.3865 18.206 19.6331C17.7724 19.8777 17.2455 20 16.625 20ZM15.4795 19.3438H16.5773C17.0824 19.3438 17.501 19.2463 17.8331 19.0514C18.1652 18.8565 18.4128 18.5791 18.5759 18.2192C18.7389 17.8592 18.8205 17.4307 18.8205 16.9335C18.8205 16.4403 18.7399 16.0158 18.5788 15.6598C18.4178 15.3018 18.1771 15.0274 17.857 14.8365C17.5368 14.6436 17.1381 14.5472 16.6608 14.5472H15.4795V19.3438Z" fill="black"/>
</svg>
