<svg width="35" height="26" viewBox="0 0 35 26" fill="none" xmlns="http://www.w3.org/2000/svg">
<path d="M11 2H1.5L2.5 23.5H27.5L32.5 11H27.5V6.5H15.5L11 2Z" fill="#FED592"/>
<path d="M33.75 10.1562H29.5312V5.71875C29.5312 5.02734 28.9727 4.46875 28.2812 4.46875H15.9766L11.3945 0.0859374C11.3362 0.0313584 11.2595 0.000684752 11.1797 0H1.25C0.558594 0 0 0.558594 0 1.25V24.375C0 25.0664 0.558594 25.625 1.25 25.625H28.5156C29.0234 25.625 29.4844 25.3164 29.6758 24.8438L34.9102 11.875C34.9688 11.7266 35 11.5664 35 11.4062C35 10.7148 34.4414 10.1562 33.75 10.1562ZM2.8125 2.8125H10.1758L14.8477 7.28125H26.7188V10.1562H6.79688C6.28906 10.1562 5.82812 10.4648 5.63672 10.9375L2.8125 17.9375V2.8125ZM27.6289 22.8125H3.71094L7.74609 12.8125H31.668L27.6289 22.8125Z" fill="black"/>
</svg>
