<svg width="42" height="33" viewBox="0 0 42 33" fill="none" xmlns="http://www.w3.org/2000/svg">
<rect x="3" y="2" width="32" height="24" fill="#EEEEEE"/>
<path d="M35.4375 0H1.3125C0.586523 0 0 0.586523 0 1.3125V27.5625C0 28.2885 0.586523 28.875 1.3125 28.875H35.4375C36.1635 28.875 36.75 28.2885 36.75 27.5625V1.3125C36.75 0.586523 36.1635 0 35.4375 0ZM33.7969 4.54453V25.9219H2.95312V4.54453L1.82109 3.6627L3.43301 1.59141L5.18848 2.95723H31.5656L33.3211 1.59141L34.933 3.6627L33.7969 4.54453ZM31.5656 2.95312L18.375 13.207L5.18437 2.95312L3.42891 1.5873L1.81699 3.65859L2.94902 4.54043L16.96 15.4342C17.3629 15.7472 17.8586 15.9171 18.3688 15.9171C18.8791 15.9171 19.3748 15.7472 19.7777 15.4342L33.7969 4.54453L34.9289 3.6627L33.317 1.59141L31.5656 2.95312Z" fill="black"/>
<circle cx="35" cy="26" r="7" fill="#FF5D00"/>
<path d="M38.6811 23H31.3184C31.0734 23 30.9204 23.2237 31.0434 23.4022L33.3696 26.7156V28.7318C33.3696 28.8802 33.5116 29 33.6877 29H36.3119C36.4879 29 36.6299 28.8802 36.6299 28.7318V26.7156L38.9571 23.4022C39.0792 23.2237 38.9261 23 38.6811 23ZM35.9139 28.3966H34.0857V27.0894H35.9149V28.3966H35.9139ZM36.0099 26.414L35.9149 26.5531H34.0847L33.9897 26.414L32.0065 23.6034H37.9931L36.0099 26.414Z" fill="#EEEEEE"/>
</svg>
