<svg width="36" height="36" viewBox="0 0 36 36" fill="none" xmlns="http://www.w3.org/2000/svg">
<rect x="4" y="22" width="28" height="9" fill="#A8A8A8"/>
<path d="M33.9999 21.08L30.8599 8.43C30.7369 8.01643 30.4835 7.65372 30.1375 7.396C29.7915 7.13828 29.3714 6.99937 28.9399 7H7.0599C6.62157 6.99967 6.19527 7.14335 5.84656 7.40895C5.49785 7.67454 5.24606 8.04734 5.1299 8.47L1.9999 21.08C1.99027 21.1597 1.99027 21.2403 1.9999 21.32V29C1.9999 29.5304 2.21062 30.0391 2.58569 30.4142C2.96076 30.7893 3.46947 31 3.9999 31H31.9999C32.5303 31 33.039 30.7893 33.4141 30.4142C33.7892 30.0391 33.9999 29.5304 33.9999 29V21.31C34.0087 21.2336 34.0087 21.1564 33.9999 21.08ZM3.9999 29V21.44L7.0599 9H28.9299L31.9999 21.44V29H3.9999Z" fill="black"/>
<path d="M3 20H33V22H3V20Z" fill="black"/>
<path d="M26 24H30V26H26V24Z" fill="black"/>
</svg>
