<svg width="42" height="34" viewBox="0 0 42 34" fill="none" xmlns="http://www.w3.org/2000/svg">
<rect x="3" y="2" width="32" height="24" fill="#EEEEEE"/>
<path d="M35.4375 0H1.3125C0.586523 0 0 0.586523 0 1.3125V27.5625C0 28.2885 0.586523 28.875 1.3125 28.875H35.4375C36.1635 28.875 36.75 28.2885 36.75 27.5625V1.3125C36.75 0.586523 36.1635 0 35.4375 0ZM33.7969 4.54453V25.9219H2.95312V4.54453L1.82109 3.6627L3.43301 1.59141L5.18848 2.95723H31.5656L33.3211 1.59141L34.933 3.6627L33.7969 4.54453ZM31.5656 2.95312L18.375 13.207L5.18437 2.95312L3.42891 1.5873L1.81699 3.65859L2.94902 4.54043L16.96 15.4342C17.3629 15.7472 17.8586 15.9171 18.3688 15.9171C18.8791 15.9171 19.3748 15.7472 19.7777 15.4342L33.7969 4.54453L34.9289 3.6627L33.317 1.59141L31.5656 2.95312Z" fill="black"/>
<circle cx="35" cy="27" r="7" fill="#FF5D00"/>
<path d="M34.8252 30.4H32.94V24.2909H34.9087C35.5013 24.2909 36.0084 24.4132 36.43 24.6578C36.8516 24.9005 37.1748 25.2495 37.3995 25.7049C37.6242 26.1583 37.7366 26.7012 37.7366 27.3335C37.7366 27.9699 37.6232 28.5178 37.3965 28.9772C37.1698 29.4345 36.8397 29.7865 36.4062 30.0331C35.9726 30.2777 35.4456 30.4 34.8252 30.4ZM33.6797 29.7438H34.7775C35.2826 29.7438 35.7012 29.6463 36.0333 29.4514C36.3654 29.2566 36.613 28.9791 36.776 28.6192C36.9391 28.2593 37.0206 27.8307 37.0206 27.3335C37.0206 26.8404 36.9401 26.4158 36.779 26.0598C36.618 25.7019 36.3773 25.4274 36.0572 25.2365C35.737 25.0436 35.3383 24.9472 34.861 24.9472H33.6797V29.7438Z" fill="black"/>
</svg>
