<svg width="37" height="29" viewBox="0 0 37 29" fill="none" xmlns="http://www.w3.org/2000/svg">
<rect x="3" y="2" width="32" height="24" fill="#EEEEEE"/>
<path d="M35.4375 0H1.3125C0.586523 0 0 0.586523 0 1.3125V27.5625C0 28.2885 0.586523 28.875 1.3125 28.875H35.4375C36.1635 28.875 36.75 28.2885 36.75 27.5625V1.3125C36.75 0.586523 36.1635 0 35.4375 0ZM33.7969 4.54453V25.9219H2.95312V4.54453L1.82109 3.6627L3.43301 1.59141L5.18848 2.95723H31.5656L33.3211 1.59141L34.933 3.6627L33.7969 4.54453ZM31.5656 2.95312L18.375 13.207L5.18437 2.95312L3.42891 1.5873L1.81699 3.65859L2.94902 4.54043L16.96 15.4342C17.3629 15.7472 17.8586 15.9171 18.3688 15.9171C18.8791 15.9171 19.3748 15.7472 19.7777 15.4342L33.7969 4.54453L34.9289 3.6627L33.317 1.59141L31.5656 2.95312Z" fill="black"/>
</svg>
