<svg width="40" height="40" viewBox="0 0 40 40" fill="none" xmlns="http://www.w3.org/2000/svg">
<circle cx="20" cy="20" r="20" fill="#FFAF13"/>
<path d="M27.7506 24.7758L19.9992 16.8059L12.2478 24.7758C12.1093 24.9185 11.9234 24.9984 11.7298 24.9984C11.5362 24.9984 11.3503 24.9185 11.2118 24.7758C11.1447 24.7065 11.0915 24.6238 11.0551 24.5325C11.0187 24.4412 11 24.3432 11 24.2441C11 24.1451 11.0187 24.0471 11.0551 23.9558C11.0915 23.8645 11.1447 23.7818 11.2118 23.7125L19.4579 15.2322C19.6028 15.0833 19.797 15 19.9992 15C20.2014 15 20.3957 15.0833 20.5405 15.2322L28.7866 23.7109C28.8541 23.7802 28.9078 23.8631 28.9445 23.9547C28.9811 24.0463 29 24.1447 29 24.2441C29 24.3436 28.9811 24.442 28.9445 24.5336C28.9078 24.6252 28.8541 24.7081 28.7866 24.7774C28.6481 24.9201 28.4622 25 28.2686 25C28.075 25 27.8891 24.9201 27.7506 24.7774V24.7758Z" fill="white"/>
</svg>
