<svg width="26" height="26" viewBox="0 0 26 26" fill="none" xmlns="http://www.w3.org/2000/svg">
<path d="M18 0.187988C13.685 0.187988 10.187 2.11699 10.187 4.49999C10.187 6.88299 13.686 8.81299 18 8.81299C22.315 8.81299 25.813 6.88299 25.813 4.49999C25.813 2.11699 22.314 0.187988 18 0.187988ZM25.813 5.78099C25.811 8.16399 22.315 10.094 18 10.094C13.697 10.094 10.207 8.18499 10.187 5.81299V7.49999C10.187 8.51799 10.839 9.44999 11.907 10.188C12.987 10.482 13.949 10.89 14.75 11.406C15.743 11.658 16.835 11.812 18 11.812C22.315 11.812 25.813 9.88299 25.813 7.49999V5.78099ZM25.813 8.78099C25.813 11.164 22.315 13.094 18 13.094C17.475 13.094 16.965 13.055 16.469 13C16.8604 13.5271 17.1274 14.136 17.25 14.781C17.499 14.795 17.745 14.812 18 14.812C22.315 14.812 25.813 12.883 25.813 10.5V8.78099ZM8.00001 11.187C3.68501 11.187 0.187012 13.117 0.187012 15.5C0.187012 17.883 3.68601 19.813 8.00001 19.813C12.315 19.813 15.813 17.883 15.813 15.5C15.813 13.117 12.314 11.187 8.00001 11.187ZM25.813 11.781C25.811 14.164 22.315 16.094 18 16.094C17.749 16.094 17.495 16.076 17.25 16.062C17.239 16.137 17.233 16.237 17.219 16.312C17.269 16.463 17.312 16.612 17.312 16.782V17.782C17.539 17.793 17.767 17.812 18 17.812C22.315 17.812 25.813 15.883 25.813 13.5V11.781ZM25.813 14.781C25.811 17.164 22.315 19.094 18 19.094C17.749 19.094 17.495 19.076 17.25 19.062C17.239 19.137 17.233 19.237 17.219 19.312C17.269 19.462 17.312 19.612 17.312 19.782V20.782C17.539 20.793 17.767 20.812 18 20.812C22.315 20.812 25.813 18.883 25.813 16.5V14.781ZM15.813 16.781C15.811 19.164 12.315 21.094 8.00001 21.094C3.69701 21.094 0.207012 19.185 0.187012 16.812V18.5C0.187012 20.883 3.68401 22.813 8.00001 22.813C12.316 22.813 15.813 20.883 15.813 18.5V16.781ZM15.813 19.781C15.811 22.164 12.315 24.094 8.00001 24.094C3.69701 24.094 0.207012 22.185 0.187012 19.812V21.5C0.187012 23.883 3.68401 25.813 8.00001 25.813C12.316 25.813 15.813 23.883 15.813 21.5V19.781Z" fill="#FF9500"/>
<ellipse cx="8" cy="15.5" rx="8" ry="4.5" fill="#FFCC00"/>
<ellipse cx="18" cy="4.5" rx="8" ry="4.5" fill="#FFCC00"/>
</svg>
