<svg width="40" height="40" viewBox="0 0 40 40" fill="none" xmlns="http://www.w3.org/2000/svg">
<circle cx="20" cy="20" r="20" fill="#FC991F"/>
<path d="M17.9497 25.5591V25.4457C17.9623 24.2429 18.0883 23.2857 18.3276 22.5741C18.5669 21.8625 18.9069 21.2863 19.3477 20.8455C19.7885 20.4047 20.3175 19.9985 20.9347 19.627C21.3062 19.4003 21.64 19.1326 21.9359 18.8241C22.2319 18.5092 22.4649 18.1471 22.6349 17.7378C22.8113 17.3285 22.8994 16.875 22.8994 16.3776C22.8994 15.7604 22.7546 15.2251 22.4649 14.7717C22.1752 14.3183 21.788 13.9688 21.3031 13.7232C20.8182 13.4776 20.2797 13.3548 19.6878 13.3548C19.1714 13.3548 18.6739 13.4619 18.1953 13.676C17.7167 13.8901 17.3168 14.227 16.9957 14.6867C16.6745 15.1464 16.4887 15.7478 16.4384 16.4909H14.058C14.1083 15.4204 14.3854 14.5041 14.8892 13.7421C15.3993 12.9801 16.07 12.3976 16.9012 11.9946C17.7388 11.5916 18.6676 11.3901 19.6878 11.3901C20.7961 11.3901 21.7596 11.6105 22.5783 12.0513C23.4032 12.4921 24.0393 13.0966 24.4864 13.8649C24.9398 14.6332 25.1665 15.5085 25.1665 16.4909C25.1665 17.1836 25.0594 17.8102 24.8453 18.3707C24.6375 18.9311 24.3352 19.4318 23.9385 19.8726C23.5481 20.3134 23.0758 20.7038 22.5216 21.0439C21.9674 21.3902 21.5235 21.7555 21.1897 22.1396C20.8559 22.5175 20.6135 22.9677 20.4624 23.4904C20.3112 24.0131 20.2294 24.6649 20.2168 25.4457V25.5591H17.9497ZM19.1588 31.1511C18.6928 31.1511 18.2929 30.9843 17.9592 30.6505C17.6254 30.3167 17.4585 29.9169 17.4585 29.4509C17.4585 28.9848 17.6254 28.585 17.9592 28.2512C18.2929 27.9174 18.6928 27.7506 19.1588 27.7506C19.6248 27.7506 20.0247 27.9174 20.3585 28.2512C20.6922 28.585 20.8591 28.9848 20.8591 29.4509C20.8591 29.7594 20.7804 30.0428 20.6229 30.301C20.4718 30.5592 20.2671 30.767 20.0089 30.9244C19.7571 31.0756 19.4737 31.1511 19.1588 31.1511Z" fill="white"/>
</svg>
