<svg width="21" height="22" viewBox="0 0 21 22" fill="none" xmlns="http://www.w3.org/2000/svg">
<path d="M13 0H7V6.987H0V12.987H7V19.974H13V12.987H20V6.987H13V0Z" fill="#74D441"/>
<path d="M18.0807 15.4182C18.0449 15.1159 17.8997 14.8813 17.6452 14.7142C17.3906 14.5472 17.0784 14.4636 16.7085 14.4636C16.4381 14.4636 16.2014 14.5074 15.9986 14.5949C15.7977 14.6824 15.6406 14.8027 15.5273 14.9558C15.4159 15.1089 15.3602 15.283 15.3602 15.4778C15.3602 15.6409 15.399 15.7811 15.4766 15.8984C15.5561 16.0138 15.6575 16.1102 15.7808 16.1878C15.9041 16.2634 16.0334 16.326 16.1686 16.3757C16.3038 16.4234 16.4281 16.4622 16.5415 16.492L17.1619 16.6591C17.321 16.7009 17.498 16.7585 17.6929 16.8321C17.8898 16.9057 18.0777 17.0061 18.2567 17.1334C18.4376 17.2587 18.5868 17.4197 18.7041 17.6166C18.8214 17.8135 18.8801 18.0551 18.8801 18.3415C18.8801 18.6716 18.7936 18.9699 18.6206 19.2364C18.4496 19.5028 18.199 19.7146 17.8689 19.8717C17.5408 20.0288 17.142 20.1074 16.6727 20.1074C16.2352 20.1074 15.8564 20.0368 15.5362 19.8956C15.218 19.7544 14.9675 19.5575 14.7845 19.305C14.6036 19.0524 14.5011 18.7591 14.4773 18.425H15.2409C15.2608 18.6557 15.3384 18.8466 15.4736 18.9977C15.6108 19.1469 15.7838 19.2582 15.9926 19.3318C16.2034 19.4034 16.4301 19.4392 16.6727 19.4392C16.9551 19.4392 17.2087 19.3935 17.4334 19.302C17.6581 19.2085 17.8361 19.0793 17.9673 18.9142C18.0986 18.7472 18.1642 18.5523 18.1642 18.3295C18.1642 18.1267 18.1075 17.9616 17.9942 17.8344C17.8808 17.7071 17.7317 17.6037 17.5467 17.5241C17.3618 17.4446 17.1619 17.375 16.9472 17.3153L16.1955 17.1006C15.7182 16.9634 15.3403 16.7675 15.0619 16.5129C14.7835 16.2584 14.6443 15.9253 14.6443 15.5136C14.6443 15.1716 14.7368 14.8733 14.9217 14.6188C15.1087 14.3622 15.3592 14.1634 15.6734 14.0222C15.9896 13.879 16.3426 13.8074 16.7324 13.8074C17.1261 13.8074 17.4761 13.878 17.7824 14.0192C18.0886 14.1584 18.3312 14.3493 18.5102 14.5919C18.6912 14.8345 18.7866 15.1099 18.7966 15.4182H18.0807Z" fill="black"/>
</svg>
