<svg width="35" height="33" viewBox="0 0 35 33" fill="none" xmlns="http://www.w3.org/2000/svg">
<path d="M24.375 27.8624L23.4426 20.3974C23.3104 19.34 22.7966 18.3673 21.9976 17.6623C21.1986 16.9572 20.1696 16.5683 19.104 16.5687H15.8931C14.828 16.569 13.7997 16.9582 13.0013 17.6632C12.2029 18.3682 11.6895 19.3405 11.5574 20.3974L10.6236 27.8624C10.5723 28.2725 10.6089 28.6888 10.7309 29.0837C10.8529 29.4786 11.0575 29.8431 11.3312 30.1528C11.6048 30.4626 11.9412 30.7106 12.3181 30.8803C12.6949 31.0501 13.1036 31.1377 13.5169 31.1374H21.4831C21.8963 31.1375 22.3048 31.0497 22.6814 30.8799C23.0581 30.71 23.3943 30.462 23.6678 30.1523C23.9413 29.8426 24.1458 29.4782 24.2677 29.0834C24.3896 28.6886 24.4262 28.2724 24.375 27.8624V27.8624Z" stroke="black" stroke-width="2.91374" stroke-linecap="round" stroke-linejoin="round"/>
<path d="M17.5 10.7412C19.9138 10.7412 21.8706 8.78443 21.8706 6.37061C21.8706 3.95679 19.9138 2 17.5 2C15.0862 2 13.1294 3.95679 13.1294 6.37061C13.1294 8.78443 15.0862 10.7412 17.5 10.7412Z" stroke="black" stroke-width="2.91374"/>
<path d="M5.84489 15.1118C7.45411 15.1118 8.75863 13.8073 8.75863 12.198C8.75863 10.5888 7.45411 9.2843 5.84489 9.2843C4.23568 9.2843 2.93115 10.5888 2.93115 12.198C2.93115 13.8073 4.23568 15.1118 5.84489 15.1118Z" stroke="black" stroke-width="2.91374"/>
<path d="M29.155 15.1118C30.7642 15.1118 32.0687 13.8073 32.0687 12.198C32.0687 10.5888 30.7642 9.2843 29.155 9.2843C27.5457 9.2843 26.2412 10.5888 26.2412 12.198C26.2412 13.8073 27.5457 15.1118 29.155 15.1118Z" stroke="black" stroke-width="2.91374"/>
<path d="M29.155 19.4824H29.6008C30.2905 19.4823 30.9579 19.7269 31.4842 20.1727C32.0106 20.6185 32.3617 21.2365 32.4752 21.9169L32.9603 24.8306C33.0299 25.2481 33.0078 25.6757 32.8954 26.0837C32.783 26.4917 32.583 26.8704 32.3095 27.1933C32.0359 27.5162 31.6953 27.7757 31.3113 27.9536C30.9273 28.1315 30.5091 28.2237 30.0859 28.2236H24.7844M5.84504 19.4824H5.39924C4.7095 19.4823 4.04209 19.7269 3.51576 20.1727C2.98943 20.6185 2.63829 21.2365 2.52483 21.9169L2.03969 24.8306C1.97007 25.2481 1.99223 25.6757 2.10463 26.0837C2.21702 26.4917 2.41695 26.8704 2.69052 27.1933C2.96408 27.5162 3.30471 27.7757 3.68872 27.9536C4.07272 28.1315 4.49087 28.2237 4.9141 28.2236H10.2156L5.84504 19.4824Z" stroke="black" stroke-width="2.91374" stroke-linecap="round" stroke-linejoin="round"/>
</svg>
